<svg width="190" height="50" viewBox="0 0 190 50" fill="none" xmlns="http://www.w3.org/2000/svg">
<path d="M20.705 39L19.27 34.49H8.61L7.175 39H0L9.758 10.3H18.122L27.88 39H20.705ZM10.578 28.34H17.302L13.94 17.803L10.578 28.34ZM44.5686 18.5H50.5546V37.975C50.5546 44.863 45.1836 47.774 39.7306 47.774C35.4666 47.774 31.8996 46.175 30.0136 42.813L35.2616 39.779C36.0406 41.214 37.2296 42.362 39.9356 42.362C42.8056 42.362 44.5686 40.886 44.5686 37.975V36.089C43.2156 37.77 41.2476 38.754 38.5826 38.754C32.7606 38.754 28.4966 33.998 28.4966 28.34C28.4966 22.682 32.7606 17.926 38.5826 17.926C41.2476 17.926 43.2156 18.91 44.5686 20.591V18.5ZM39.6076 33.096C42.5186 33.096 44.5686 31.169 44.5686 28.34C44.5686 25.511 42.5186 23.584 39.6076 23.584C36.6966 23.584 34.6466 25.511 34.6466 28.34C34.6466 31.169 36.6966 33.096 39.6076 33.096ZM61.2165 22.149C62.0365 19.402 64.7835 18.09 67.3665 18.09V25.06C64.8245 24.65 61.2165 25.675 61.2165 29.734V39H55.0665V18.5H61.2165V22.149ZM79.4807 39.574C73.4537 39.574 68.6157 34.859 68.6157 28.75C68.6157 22.641 73.4537 17.926 79.4807 17.926C85.5077 17.926 90.3457 22.641 90.3457 28.75C90.3457 34.859 85.5077 39.574 79.4807 39.574ZM79.4807 33.588C82.1457 33.588 84.1957 31.661 84.1957 28.75C84.1957 25.839 82.1457 23.912 79.4807 23.912C76.8157 23.912 74.7657 25.839 74.7657 28.75C74.7657 31.661 76.8157 33.588 79.4807 33.588ZM104.074 39.574C98.0473 39.574 94.1933 36.704 92.5943 32.481L98.2523 29.201C99.2773 31.579 101.04 33.178 104.279 33.178C107.395 33.178 108.174 31.948 108.174 30.841C108.174 29.078 106.534 28.381 102.229 27.192C97.9653 26.003 93.7833 23.953 93.7833 18.459C93.7833 12.924 98.4573 9.726 103.418 9.726C108.133 9.726 111.823 11.981 113.914 16.204L108.379 19.443C107.395 17.393 106.042 16.122 103.418 16.122C101.368 16.122 100.343 17.147 100.343 18.295C100.343 19.607 101.04 20.509 105.509 21.862C109.855 23.174 114.734 24.691 114.734 30.759C114.734 36.294 110.306 39.574 104.074 39.574ZM129.821 17.926C133.962 17.926 137.488 20.878 137.488 26.413V39H131.338V27.315C131.338 24.773 129.739 23.584 127.771 23.584C125.516 23.584 123.958 24.896 123.958 27.807V39H117.808V10.3H123.958V20.427C125.065 18.91 127.115 17.926 129.821 17.926ZM151.551 39.574C145.524 39.574 140.686 34.859 140.686 28.75C140.686 22.641 145.524 17.926 151.551 17.926C157.578 17.926 162.416 22.641 162.416 28.75C162.416 34.859 157.578 39.574 151.551 39.574ZM151.551 33.588C154.216 33.588 156.266 31.661 156.266 28.75C156.266 25.839 154.216 23.912 151.551 23.912C148.886 23.912 146.836 25.839 146.836 28.75C146.836 31.661 148.886 33.588 151.551 33.588ZM178.154 17.926C183.525 17.926 187.953 22.641 187.953 28.75C187.953 34.859 183.525 39.574 178.154 39.574C175.407 39.574 173.398 38.631 172.045 37.073V47.2H165.895V18.5H172.045V20.427C173.398 18.869 175.407 17.926 178.154 17.926ZM176.924 33.752C179.753 33.752 181.803 31.825 181.803 28.75C181.803 25.675 179.753 23.748 176.924 23.748C174.095 23.748 172.045 25.675 172.045 28.75C172.045 31.825 174.095 33.752 176.924 33.752Z" fill="#414141"/>
</svg>
